<?xml version="1.0" ?><!DOCTYPE svg  PUBLIC '-//W3C//DTD SVG 1.1//EN'  'http://www.w3.org/Graphics/SVG/1.1/DTD/svg11.dtd'><svg enable-background="new 0 0 640.4 691" id="Слой_1" version="1.1" viewBox="0 0 640.4 691" xml:space="preserve" xmlns="http://www.w3.org/2000/svg" xmlns:xlink="http://www.w3.org/1999/xlink"><g><rect fill="none" height="162" width="594" x="23.2" y="572.6"/><text fill="#4D4E4F" font-family="'MyriadPro-Regular'" font-size="100" transform="matrix(1 0 0 1 92.2732 643.5521)"/><g><g><linearGradient gradientUnits="userSpaceOnUse" id="SVGID_1_" x1="109.7321" x2="273.8765" y1="450.8561" y2="450.8561"><stop offset="0" style="stop-color:#FFFFFF"/><stop offset="1" style="stop-color:#FBB03B"/></linearGradient><path d="M166.1,516.2l-5.5-5.5l113.3-113.3      l-27.9-27.9L132.7,482.8l-6.9-6.9c-3.7-3.7-9.6-3.8-13.3-0.1c-3.7,3.7-3.6,9.6,0.1,13.3l40.3,40.3c3.7,3.7,9.6,3.8,13.3,0.1      C169.9,525.8,169.8,519.9,166.1,516.2z" fill="url(#SVGID_1_)" stroke="#4D4E4F" stroke-miterlimit="10" stroke-width="6"/><linearGradient gradientUnits="userSpaceOnUse" id="SVGID_2_" x1="217.957" x2="314.6004" y1="373.8865" y2="373.8865"><stop offset="0" style="stop-color:#FFFFFF"/><stop offset="1" style="stop-color:#FBB03B"/></linearGradient><path d="M295,419l-73.8-73.8      c-4.3-4.3-4.3-11.4,0-15.7l0.6-0.6c4.3-4.3,11.4-4.3,15.7,0l73.8,73.8c4.3,4.3,4.3,11.4,0,15.7l-0.6,0.6      C306.4,423.3,299.3,423.3,295,419z" fill="url(#SVGID_2_)" stroke="#4D4E4F" stroke-miterlimit="10" stroke-width="6"/><path d="M278.7,363.2l40.9-40.9l-99-198.5      c0,0-8.4,1.5,39.3-39.1l23.2,23.2" fill="none" stroke="#4D4E4F" stroke-miterlimit="10" stroke-width="11"/><path d="M473.8,343.6L278.3,148.1      c-11.7-11.7-11.7-30.8,0-42.4l5.7-5.7c11.7-11.7,30.8-11.7,42.4,0L522,295.5c11.7,11.7,11.7,30.8,0,42.4l-5.7,5.7      C504.6,355.3,485.5,355.3,473.8,343.6z" fill="none" stroke="#4D4E4F" stroke-miterlimit="10" stroke-width="6"/><linearGradient gradientTransform="matrix(0.6695 0.6695 -0.7071 0.7071 -2666.4324 825.1359)" gradientUnits="userSpaceOnUse" id="SVGID_3_" x1="1839.5769" x2="1839.5769" y1="-2621.6301" y2="-2563.3875"><stop offset="0" style="stop-color:#FFFFFF"/><stop offset="1" style="stop-color:#000000"/></linearGradient><path d="M473.8,343.6      L278.3,148.1c-11.7-11.7-11.7-30.8,0-42.4l5.7-5.7c11.7-11.7,30.8-11.7,42.4,0L522,295.5c11.7,11.7,11.7,30.8,0,42.4l-5.7,5.7      C504.6,355.3,485.5,355.3,473.8,343.6z" fill="url(#SVGID_3_)" opacity="0.2" stroke="#4D4E4F" stroke-miterlimit="10" stroke-width="6"/></g><path d="M321.6,98.3c0,0-4,50.8,30.8,66.1c34.9,15.3,49.7,28.5,50.7,32.5c1,4,14.2,35.4,27.1,43.7     c12.9,8.4,63.9,41.6,73.4,42.2C513.1,283.4,321.6,98.3,321.6,98.3z" fill="#60D8D8"/></g></g></svg>